<svg id="visual" viewBox="0 0 900 90" width="900" height="90" xmlns="http://www.w3.org/2000/svg" xmlns:xlink="http://www.w3.org/1999/xlink" version="1.1"><path d="M0 10L10 10.8C20 11.7 40 13.3 60 14.2C80 15 100 15 120 14.7C140 14.3 160 13.7 180 12.5C200 11.3 220 9.7 240 8.5C260 7.3 280 6.7 300 7.8C320 9 340 12 360 11.8C380 11.7 400 8.3 420 6.8C440 5.3 460 5.7 480 7C500 8.3 520 10.7 540 10.3C560 10 580 7 600 5.8C620 4.7 640 5.3 660 6.5C680 7.7 700 9.3 720 10.7C740 12 760 13 780 13.5C800 14 820 14 840 14C860 14 880 14 890 14L900 14L900 0L890 0C880 0 860 0 840 0C820 0 800 0 780 0C760 0 740 0 720 0C700 0 680 0 660 0C640 0 620 0 600 0C580 0 560 0 540 0C520 0 500 0 480 0C460 0 440 0 420 0C400 0 380 0 360 0C340 0 320 0 300 0C280 0 260 0 240 0C220 0 200 0 180 0C160 0 140 0 120 0C100 0 80 0 60 0C40 0 20 0 10 0L0 0Z" fill="#ffffff"></path><path d="M0 29L10 27.7C20 26.3 40 23.7 60 21.8C80 20 100 19 120 20.8C140 22.7 160 27.3 180 29.3C200 31.3 220 30.7 240 27.8C260 25 280 20 300 19.8C320 19.7 340 24.3 360 25.7C380 27 400 25 420 24.2C440 23.3 460 23.7 480 22.7C500 21.7 520 19.3 540 16.7C560 14 580 11 600 12.3C620 13.7 640 19.3 660 20.5C680 21.7 700 18.3 720 19.2C740 20 760 25 780 26.5C800 28 820 26 840 26.7C860 27.3 880 30.7 890 32.3L900 34L900 12L890 12C880 12 860 12 840 12C820 12 800 12 780 11.5C760 11 740 10 720 8.7C700 7.3 680 5.7 660 4.5C640 3.3 620 2.7 600 3.8C580 5 560 8 540 8.3C520 8.7 500 6.3 480 5C460 3.7 440 3.3 420 4.8C400 6.3 380 9.7 360 9.8C340 10 320 7 300 5.8C280 4.7 260 5.3 240 6.5C220 7.7 200 9.3 180 10.5C160 11.7 140 12.3 120 12.7C100 13 80 13 60 12.2C40 11.3 20 9.7 10 8.8L0 8Z" fill="#e2d4f9"></path><path d="M0 35L10 33.8C20 32.7 40 30.3 60 31.5C80 32.7 100 37.3 120 41.2C140 45 160 48 180 48.3C200 48.7 220 46.3 240 43.5C260 40.7 280 37.3 300 35.7C320 34 340 34 360 36.7C380 39.3 400 44.7 420 44.7C440 44.7 460 39.3 480 38C500 36.7 520 39.3 540 38.5C560 37.7 580 33.3 600 34.7C620 36 640 43 660 45.2C680 47.3 700 44.7 720 45C740 45.3 760 48.7 780 50.2C800 51.7 820 51.3 840 49.3C860 47.3 880 43.7 890 41.8L900 40L900 32L890 30.3C880 28.7 860 25.3 840 24.7C820 24 800 26 780 24.5C760 23 740 18 720 17.2C700 16.3 680 19.7 660 18.5C640 17.3 620 11.7 600 10.3C580 9 560 12 540 14.7C520 17.3 500 19.7 480 20.7C460 21.7 440 21.3 420 22.2C400 23 380 25 360 23.7C340 22.3 320 17.7 300 17.8C280 18 260 23 240 25.8C220 28.7 200 29.3 180 27.3C160 25.3 140 20.7 120 18.8C100 17 80 18 60 19.8C40 21.7 20 24.3 10 25.7L0 27Z" fill="#c4aaf2"></path><path d="M0 73L10 70.7C20 68.3 40 63.7 60 60C80 56.3 100 53.7 120 55.3C140 57 160 63 180 68.2C200 73.3 220 77.7 240 75.5C260 73.3 280 64.7 300 59C320 53.3 340 50.7 360 52.2C380 53.7 400 59.3 420 62.8C440 66.3 460 67.7 480 68.2C500 68.7 520 68.3 540 69.2C560 70 580 72 600 73.3C620 74.7 640 75.3 660 71.3C680 67.3 700 58.7 720 59C740 59.3 760 68.7 780 72.2C800 75.7 820 73.3 840 71.5C860 69.7 880 68.3 890 67.7L900 67L900 38L890 39.8C880 41.7 860 45.3 840 47.3C820 49.3 800 49.7 780 48.2C760 46.7 740 43.3 720 43C700 42.7 680 45.3 660 43.2C640 41 620 34 600 32.7C580 31.3 560 35.7 540 36.5C520 37.3 500 34.7 480 36C460 37.3 440 42.7 420 42.7C400 42.7 380 37.3 360 34.7C340 32 320 32 300 33.7C280 35.3 260 38.7 240 41.5C220 44.3 200 46.7 180 46.3C160 46 140 43 120 39.2C100 35.3 80 30.7 60 29.5C40 28.3 20 30.7 10 31.8L0 33Z" fill="#a381ea"></path><path d="M0 91L10 91C20 91 40 91 60 91C80 91 100 91 120 91C140 91 160 91 180 91C200 91 220 91 240 91C260 91 280 91 300 91C320 91 340 91 360 91C380 91 400 91 420 91C440 91 460 91 480 91C500 91 520 91 540 91C560 91 580 91 600 91C620 91 640 91 660 91C680 91 700 91 720 91C740 91 760 91 780 91C800 91 820 91 840 91C860 91 880 91 890 91L900 91L900 65L890 65.7C880 66.3 860 67.7 840 69.5C820 71.3 800 73.7 780 70.2C760 66.7 740 57.3 720 57C700 56.7 680 65.3 660 69.3C640 73.3 620 72.7 600 71.3C580 70 560 68 540 67.2C520 66.3 500 66.7 480 66.2C460 65.7 440 64.3 420 60.8C400 57.3 380 51.7 360 50.2C340 48.7 320 51.3 300 57C280 62.7 260 71.3 240 73.5C220 75.7 200 71.3 180 66.2C160 61 140 55 120 53.3C100 51.7 80 54.3 60 58C40 61.7 20 66.3 10 68.7L0 71Z" fill="#7e59e2"></path></svg>