<svg id="visual" viewBox="0 0 900 200" width="900" height="200" xmlns="http://www.w3.org/2000/svg" xmlns:xlink="http://www.w3.org/1999/xlink" version="1.1"><path d="M0 52L16.7 53.8C33.3 55.7 66.7 59.3 100 62C133.3 64.7 166.7 66.3 200 70.5C233.3 74.7 266.7 81.3 300 84.8C333.3 88.3 366.7 88.7 400 86C433.3 83.3 466.7 77.7 500 70.5C533.3 63.3 566.7 54.7 600 56.5C633.3 58.3 666.7 70.7 700 72.5C733.3 74.3 766.7 65.7 800 61.3C833.3 57 866.7 57 883.3 57L900 57L900 201L883.3 201C866.7 201 833.3 201 800 201C766.7 201 733.3 201 700 201C666.7 201 633.3 201 600 201C566.7 201 533.3 201 500 201C466.7 201 433.3 201 400 201C366.7 201 333.3 201 300 201C266.7 201 233.3 201 200 201C166.7 201 133.3 201 100 201C66.7 201 33.3 201 16.7 201L0 201Z" fill="#ffffff"></path><path d="M0 79L16.7 75.7C33.3 72.3 66.7 65.7 100 68C133.3 70.3 166.7 81.7 200 86.5C233.3 91.3 266.7 89.7 300 92.3C333.3 95 366.7 102 400 104.7C433.3 107.3 466.7 105.7 500 103.7C533.3 101.7 566.7 99.3 600 94.8C633.3 90.3 666.7 83.7 700 83.5C733.3 83.3 766.7 89.7 800 87.8C833.3 86 866.7 76 883.3 71L900 66L900 201L883.3 201C866.7 201 833.3 201 800 201C766.7 201 733.3 201 700 201C666.7 201 633.3 201 600 201C566.7 201 533.3 201 500 201C466.7 201 433.3 201 400 201C366.7 201 333.3 201 300 201C266.7 201 233.3 201 200 201C166.7 201 133.3 201 100 201C66.7 201 33.3 201 16.7 201L0 201Z" fill="#e8dcfa"></path><path d="M0 83L16.7 87.5C33.3 92 66.7 101 100 107.8C133.3 114.7 166.7 119.3 200 117.8C233.3 116.3 266.7 108.7 300 105.2C333.3 101.7 366.7 102.3 400 106C433.3 109.7 466.7 116.3 500 119.3C533.3 122.3 566.7 121.7 600 121.3C633.3 121 666.7 121 700 118.7C733.3 116.3 766.7 111.7 800 108.2C833.3 104.7 866.7 102.3 883.3 101.2L900 100L900 201L883.3 201C866.7 201 833.3 201 800 201C766.7 201 733.3 201 700 201C666.7 201 633.3 201 600 201C566.7 201 533.3 201 500 201C466.7 201 433.3 201 400 201C366.7 201 333.3 201 300 201C266.7 201 233.3 201 200 201C166.7 201 133.3 201 100 201C66.7 201 33.3 201 16.7 201L0 201Z" fill="#d0bbf5"></path><path d="M0 122L16.7 124.5C33.3 127 66.7 132 100 135.8C133.3 139.7 166.7 142.3 200 144.2C233.3 146 266.7 147 300 146.7C333.3 146.3 366.7 144.7 400 138.7C433.3 132.7 466.7 122.3 500 117.2C533.3 112 566.7 112 600 114.8C633.3 117.7 666.7 123.3 700 126.8C733.3 130.3 766.7 131.7 800 131.5C833.3 131.3 866.7 129.7 883.3 128.8L900 128L900 201L883.3 201C866.7 201 833.3 201 800 201C766.7 201 733.3 201 700 201C666.7 201 633.3 201 600 201C566.7 201 533.3 201 500 201C466.7 201 433.3 201 400 201C366.7 201 333.3 201 300 201C266.7 201 233.3 201 200 201C166.7 201 133.3 201 100 201C66.7 201 33.3 201 16.7 201L0 201Z" fill="#b79aef"></path><path d="M0 140L16.7 142.2C33.3 144.3 66.7 148.7 100 147.2C133.3 145.7 166.7 138.3 200 137.8C233.3 137.3 266.7 143.7 300 144.5C333.3 145.3 366.7 140.7 400 139.5C433.3 138.3 466.7 140.7 500 145C533.3 149.3 566.7 155.7 600 157.3C633.3 159 666.7 156 700 156.3C733.3 156.7 766.7 160.3 800 161.8C833.3 163.3 866.7 162.7 883.3 162.3L900 162L900 201L883.3 201C866.7 201 833.3 201 800 201C766.7 201 733.3 201 700 201C666.7 201 633.3 201 600 201C566.7 201 533.3 201 500 201C466.7 201 433.3 201 400 201C366.7 201 333.3 201 300 201C266.7 201 233.3 201 200 201C166.7 201 133.3 201 100 201C66.7 201 33.3 201 16.7 201L0 201Z" fill="#9c79e9"></path><path d="M0 156L16.7 157.8C33.3 159.7 66.7 163.3 100 166.8C133.3 170.3 166.7 173.7 200 173.8C233.3 174 266.7 171 300 170.7C333.3 170.3 366.7 172.7 400 174.8C433.3 177 466.7 179 500 177.3C533.3 175.7 566.7 170.3 600 169.7C633.3 169 666.7 173 700 172.5C733.3 172 766.7 167 800 165.3C833.3 163.7 866.7 165.3 883.3 166.2L900 167L900 201L883.3 201C866.7 201 833.3 201 800 201C766.7 201 733.3 201 700 201C666.7 201 633.3 201 600 201C566.7 201 533.3 201 500 201C466.7 201 433.3 201 400 201C366.7 201 333.3 201 300 201C266.7 201 233.3 201 200 201C166.7 201 133.3 201 100 201C66.7 201 33.3 201 16.7 201L0 201Z" fill="#7e59e2"></path></svg>