<svg id="ep3HmanMAfo1" xmlns="http://www.w3.org/2000/svg" xmlns:xlink="http://www.w3.org/1999/xlink" viewBox="0 0 300 300" shape-rendering="geometricPrecision" text-rendering="geometricPrecision" project-id="87493e1927334655b9f8253a92016eee" export-id="b268a50d02b44edfa9fc82dc79904b8b" cached="false"><path d="M42.35003,127.56814c0-39.62763,32.12454-71.75217,71.75217-71.75217c26.02743,0,48.81812,13.85809,61.39599,34.59815-11.12074-14.38771-28.54815-23.6529-48.13957-23.6529-33.58274,0-60.80692,27.22419-60.80692,60.80692s27.22419,60.80692,60.80692,60.80692c19.59142,0,37.01883-9.26519,48.13957-23.6529-12.57786,20.74006-35.36856,34.59815-61.39599,34.59815-39.62763,0-71.75217-32.12454-71.75217-71.75217Z" transform="translate(20.537946-7.315918)" fill="#7e59e2" stroke-width="0"/><path d="M42.35003,127.56814c0-39.62763,32.12454-71.75217,71.75217-71.75217c26.02743,0,48.81812,13.85809,61.39599,34.59815-11.12074-14.38771-28.54815-23.6529-48.13957-23.6529-33.58274,0-60.80692,27.22419-60.80692,60.80692s27.22419,60.80692,60.80692,60.80692c19.59142,0,37.01883-9.26519,48.13957-23.6529-12.57786,20.74006-35.36856,34.59815-61.39599,34.59815-39.62763,0-71.75217-32.12454-71.75217-71.75217Z" transform="matrix(-1 0 0-1 275.598707 305.770579)" fill="#7e59e2" stroke-width="0"/></svg>
