<svg id="visual" viewBox="0 0 900 435" width="900" height="435" xmlns="http://www.w3.org/2000/svg" xmlns:xlink="http://www.w3.org/1999/xlink" version="1.1"><rect x="0" y="0" width="900" height="435" fill="#ffffff"></rect><path d="M0 143L15 149.8C30 156.7 60 170.3 90 179.7C120 189 150 194 180 198.2C210 202.3 240 205.7 270 218.7C300 231.7 330 254.3 360 249.2C390 244 420 211 450 191.3C480 171.7 510 165.3 540 159C570 152.7 600 146.3 630 163.2C660 180 690 220 720 219.5C750 219 780 178 810 157.8C840 137.7 870 138.3 885 138.7L900 139L900 436L885 436C870 436 840 436 810 436C780 436 750 436 720 436C690 436 660 436 630 436C600 436 570 436 540 436C510 436 480 436 450 436C420 436 390 436 360 436C330 436 300 436 270 436C240 436 210 436 180 436C150 436 120 436 90 436C60 436 30 436 15 436L0 436Z" fill="#f1f1f1"></path><path d="M0 249L15 250.7C30 252.3 60 255.7 90 252.3C120 249 150 239 180 245.3C210 251.7 240 274.3 270 280.7C300 287 330 277 360 268.8C390 260.7 420 254.3 450 258.7C480 263 510 278 540 278.8C570 279.7 600 266.3 630 258.5C660 250.7 690 248.3 720 243C750 237.7 780 229.3 810 231.3C840 233.3 870 245.7 885 251.8L900 258L900 436L885 436C870 436 840 436 810 436C780 436 750 436 720 436C690 436 660 436 630 436C600 436 570 436 540 436C510 436 480 436 450 436C420 436 390 436 360 436C330 436 300 436 270 436C240 436 210 436 180 436C150 436 120 436 90 436C60 436 30 436 15 436L0 436Z" fill="#d8caee"></path><path d="M0 277L15 285.8C30 294.7 60 312.3 90 321.2C120 330 150 330 180 313C210 296 240 262 270 253.2C300 244.3 330 260.7 360 269.7C390 278.7 420 280.3 450 274.3C480 268.3 510 254.7 540 247.7C570 240.7 600 240.3 630 252C660 263.7 690 287.3 720 286.8C750 286.3 780 261.7 810 251.3C840 241 870 245 885 247L900 249L900 436L885 436C870 436 840 436 810 436C780 436 750 436 720 436C690 436 660 436 630 436C600 436 570 436 540 436C510 436 480 436 450 436C420 436 390 436 360 436C330 436 300 436 270 436C240 436 210 436 180 436C150 436 120 436 90 436C60 436 30 436 15 436L0 436Z" fill="#bda4eb"></path><path d="M0 332L15 337C30 342 60 352 90 351.5C120 351 150 340 180 326.8C210 313.7 240 298.3 270 292.3C300 286.3 330 289.7 360 291.3C390 293 420 293 450 302.3C480 311.7 510 330.3 540 330.8C570 331.3 600 313.7 630 309.7C660 305.7 690 315.3 720 320.5C750 325.7 780 326.3 810 323.2C840 320 870 313 885 309.5L900 306L900 436L885 436C870 436 840 436 810 436C780 436 750 436 720 436C690 436 660 436 630 436C600 436 570 436 540 436C510 436 480 436 450 436C420 436 390 436 360 436C330 436 300 436 270 436C240 436 210 436 180 436C150 436 120 436 90 436C60 436 30 436 15 436L0 436Z" fill="#a07ee7"></path><path d="M0 376L15 373.7C30 371.3 60 366.7 90 362.2C120 357.7 150 353.3 180 353.2C210 353 240 357 270 355.5C300 354 330 347 360 350.5C390 354 420 368 450 374C480 380 510 378 540 375.5C570 373 600 370 630 366.7C660 363.3 690 359.7 720 359.5C750 359.3 780 362.7 810 360.3C840 358 870 350 885 346L900 342L900 436L885 436C870 436 840 436 810 436C780 436 750 436 720 436C690 436 660 436 630 436C600 436 570 436 540 436C510 436 480 436 450 436C420 436 390 436 360 436C330 436 300 436 270 436C240 436 210 436 180 436C150 436 120 436 90 436C60 436 30 436 15 436L0 436Z" fill="#7e59e2"></path></svg>