<svg id="visual" viewBox="0 0 900 435" width="900" height="435" xmlns="http://www.w3.org/2000/svg" xmlns:xlink="http://www.w3.org/1999/xlink" version="1.1"><path d="M0 182L15 175.3C30 168.7 60 155.3 90 145.5C120 135.7 150 129.3 180 133.7C210 138 240 153 270 156C300 159 330 150 360 155C390 160 420 179 450 186.5C480 194 510 190 540 197.7C570 205.3 600 224.7 630 228.8C660 233 690 222 720 220.3C750 218.7 780 226.3 810 231.5C840 236.7 870 239.3 885 240.7L900 242L900 436L885 436C870 436 840 436 810 436C780 436 750 436 720 436C690 436 660 436 630 436C600 436 570 436 540 436C510 436 480 436 450 436C420 436 390 436 360 436C330 436 300 436 270 436C240 436 210 436 180 436C150 436 120 436 90 436C60 436 30 436 15 436L0 436Z" fill="#ffffff"></path><path d="M0 214L15 221.8C30 229.7 60 245.3 90 241.7C120 238 150 215 180 203.2C210 191.3 240 190.7 270 204.5C300 218.3 330 246.7 360 250.7C390 254.7 420 234.3 450 229.8C480 225.3 510 236.7 540 236.8C570 237 600 226 630 215.3C660 204.7 690 194.3 720 198C750 201.7 780 219.3 810 236.5C840 253.7 870 270.3 885 278.7L900 287L900 436L885 436C870 436 840 436 810 436C780 436 750 436 720 436C690 436 660 436 630 436C600 436 570 436 540 436C510 436 480 436 450 436C420 436 390 436 360 436C330 436 300 436 270 436C240 436 210 436 180 436C150 436 120 436 90 436C60 436 30 436 15 436L0 436Z" fill="#e2d4f9"></path><path d="M0 267L15 268.3C30 269.7 60 272.3 90 276C120 279.7 150 284.3 180 291.7C210 299 240 309 270 311.3C300 313.7 330 308.3 360 296.8C390 285.3 420 267.7 450 259C480 250.3 510 250.7 540 252.3C570 254 600 257 630 261.7C660 266.3 690 272.7 720 272.2C750 271.7 780 264.3 810 272.5C840 280.7 870 304.3 885 316.2L900 328L900 436L885 436C870 436 840 436 810 436C780 436 750 436 720 436C690 436 660 436 630 436C600 436 570 436 540 436C510 436 480 436 450 436C420 436 390 436 360 436C330 436 300 436 270 436C240 436 210 436 180 436C150 436 120 436 90 436C60 436 30 436 15 436L0 436Z" fill="#c4aaf2"></path><path d="M0 304L15 308C30 312 60 320 90 328.5C120 337 150 346 180 343.7C210 341.3 240 327.7 270 324.3C300 321 330 328 360 323C390 318 420 301 450 303C480 305 510 326 540 337.2C570 348.3 600 349.7 630 348C660 346.3 690 341.7 720 332.7C750 323.7 780 310.3 810 312.3C840 314.3 870 331.7 885 340.3L900 349L900 436L885 436C870 436 840 436 810 436C780 436 750 436 720 436C690 436 660 436 630 436C600 436 570 436 540 436C510 436 480 436 450 436C420 436 390 436 360 436C330 436 300 436 270 436C240 436 210 436 180 436C150 436 120 436 90 436C60 436 30 436 15 436L0 436Z" fill="#a381ea"></path><path d="M0 372L15 373.2C30 374.3 60 376.7 90 372.2C120 367.7 150 356.3 180 354.8C210 353.3 240 361.7 270 365.2C300 368.7 330 367.3 360 367.8C390 368.3 420 370.7 450 371.7C480 372.7 510 372.3 540 372.7C570 373 600 374 630 375.5C660 377 690 379 720 381.5C750 384 780 387 810 379.2C840 371.3 870 352.7 885 343.3L900 334L900 436L885 436C870 436 840 436 810 436C780 436 750 436 720 436C690 436 660 436 630 436C600 436 570 436 540 436C510 436 480 436 450 436C420 436 390 436 360 436C330 436 300 436 270 436C240 436 210 436 180 436C150 436 120 436 90 436C60 436 30 436 15 436L0 436Z" fill="#7e59e2"></path></svg>