<?xml version="1.0" standalone="no"?>
<svg xmlns:xlink="http://www.w3.org/1999/xlink" id="wave" style="transform:rotate(180deg); transition: 0.3s" viewBox="0 0 1440 210" version="1.1" xmlns="http://www.w3.org/2000/svg"><defs><linearGradient id="sw-gradient-0" x1="0" x2="0" y1="1" y2="0"><stop stop-color="rgba(137, 100, 236, 1)" offset="0%"/><stop stop-color="rgba(137, 100, 236, 1)" offset="100%"/></linearGradient></defs><path style="transform:translate(0, 0px); opacity:1" fill="url(#sw-gradient-0)" d="M0,42L10,63C20,84,40,126,60,122.5C80,119,100,70,120,52.5C140,35,160,49,180,66.5C200,84,220,105,240,105C260,105,280,84,300,84C320,84,340,105,360,122.5C380,140,400,154,420,157.5C440,161,460,154,480,133C500,112,520,77,540,70C560,63,580,84,600,98C620,112,640,119,660,119C680,119,700,112,720,115.5C740,119,760,133,780,126C800,119,820,91,840,87.5C860,84,880,105,900,112C920,119,940,112,960,101.5C980,91,1000,77,1020,70C1040,63,1060,63,1080,84C1100,105,1120,147,1140,164.5C1160,182,1180,175,1200,161C1220,147,1240,126,1260,101.5C1280,77,1300,49,1320,56C1340,63,1360,105,1380,101.5C1400,98,1420,49,1430,24.5L1440,0L1440,210L1430,210C1420,210,1400,210,1380,210C1360,210,1340,210,1320,210C1300,210,1280,210,1260,210C1240,210,1220,210,1200,210C1180,210,1160,210,1140,210C1120,210,1100,210,1080,210C1060,210,1040,210,1020,210C1000,210,980,210,960,210C940,210,920,210,900,210C880,210,860,210,840,210C820,210,800,210,780,210C760,210,740,210,720,210C700,210,680,210,660,210C640,210,620,210,600,210C580,210,560,210,540,210C520,210,500,210,480,210C460,210,440,210,420,210C400,210,380,210,360,210C340,210,320,210,300,210C280,210,260,210,240,210C220,210,200,210,180,210C160,210,140,210,120,210C100,210,80,210,60,210C40,210,20,210,10,210L0,210Z"/><defs><linearGradient id="sw-gradient-1" x1="0" x2="0" y1="1" y2="0"><stop stop-color="rgba(137, 100, 236, 1)" offset="0%"/><stop stop-color="rgba(137, 100, 236, 1)" offset="100%"/></linearGradient></defs><path style="transform:translate(0, 50px); opacity:0.9" fill="url(#sw-gradient-1)" d="M0,168L10,147C20,126,40,84,60,80.5C80,77,100,112,120,115.5C140,119,160,91,180,77C200,63,220,63,240,66.5C260,70,280,77,300,98C320,119,340,154,360,143.5C380,133,400,77,420,63C440,49,460,77,480,91C500,105,520,105,540,105C560,105,580,105,600,115.5C620,126,640,147,660,136.5C680,126,700,84,720,87.5C740,91,760,140,780,147C800,154,820,119,840,115.5C860,112,880,140,900,157.5C920,175,940,182,960,161C980,140,1000,91,1020,63C1040,35,1060,28,1080,35C1100,42,1120,63,1140,66.5C1160,70,1180,56,1200,73.5C1220,91,1240,140,1260,136.5C1280,133,1300,77,1320,49C1340,21,1360,21,1380,24.5C1400,28,1420,35,1430,38.5L1440,42L1440,210L1430,210C1420,210,1400,210,1380,210C1360,210,1340,210,1320,210C1300,210,1280,210,1260,210C1240,210,1220,210,1200,210C1180,210,1160,210,1140,210C1120,210,1100,210,1080,210C1060,210,1040,210,1020,210C1000,210,980,210,960,210C940,210,920,210,900,210C880,210,860,210,840,210C820,210,800,210,780,210C760,210,740,210,720,210C700,210,680,210,660,210C640,210,620,210,600,210C580,210,560,210,540,210C520,210,500,210,480,210C460,210,440,210,420,210C400,210,380,210,360,210C340,210,320,210,300,210C280,210,260,210,240,210C220,210,200,210,180,210C160,210,140,210,120,210C100,210,80,210,60,210C40,210,20,210,10,210L0,210Z"/><defs><linearGradient id="sw-gradient-2" x1="0" x2="0" y1="1" y2="0"><stop stop-color="rgba(137, 100, 236, 1)" offset="0%"/><stop stop-color="rgba(126, 89, 226, 1)" offset="100%"/></linearGradient></defs><path style="transform:translate(0, 100px); opacity:0.8" fill="url(#sw-gradient-2)" d="M0,105L10,105C20,105,40,105,60,119C80,133,100,161,120,171.5C140,182,160,175,180,147C200,119,220,70,240,59.5C260,49,280,77,300,80.5C320,84,340,63,360,49C380,35,400,28,420,35C440,42,460,63,480,63C500,63,520,42,540,38.5C560,35,580,49,600,70C620,91,640,119,660,133C680,147,700,147,720,140C740,133,760,119,780,126C800,133,820,161,840,164.5C860,168,880,147,900,140C920,133,940,140,960,147C980,154,1000,161,1020,140C1040,119,1060,70,1080,63C1100,56,1120,91,1140,98C1160,105,1180,84,1200,73.5C1220,63,1240,63,1260,77C1280,91,1300,119,1320,119C1340,119,1360,91,1380,77C1400,63,1420,63,1430,63L1440,63L1440,210L1430,210C1420,210,1400,210,1380,210C1360,210,1340,210,1320,210C1300,210,1280,210,1260,210C1240,210,1220,210,1200,210C1180,210,1160,210,1140,210C1120,210,1100,210,1080,210C1060,210,1040,210,1020,210C1000,210,980,210,960,210C940,210,920,210,900,210C880,210,860,210,840,210C820,210,800,210,780,210C760,210,740,210,720,210C700,210,680,210,660,210C640,210,620,210,600,210C580,210,560,210,540,210C520,210,500,210,480,210C460,210,440,210,420,210C400,210,380,210,360,210C340,210,320,210,300,210C280,210,260,210,240,210C220,210,200,210,180,210C160,210,140,210,120,210C100,210,80,210,60,210C40,210,20,210,10,210L0,210Z"/><defs><linearGradient id="sw-gradient-3" x1="0" x2="0" y1="1" y2="0"><stop stop-color="rgba(137, 100, 236, 1)" offset="0%"/><stop stop-color="rgba(137, 100, 236, 1)" offset="100%"/></linearGradient></defs><path style="transform:translate(0, 150px); opacity:0.7" fill="url(#sw-gradient-3)" d="M0,168L10,168C20,168,40,168,60,168C80,168,100,168,120,161C140,154,160,140,180,115.5C200,91,220,56,240,49C260,42,280,63,300,70C320,77,340,70,360,56C380,42,400,21,420,10.5C440,0,460,0,480,3.5C500,7,520,14,540,42C560,70,580,119,600,147C620,175,640,182,660,171.5C680,161,700,133,720,101.5C740,70,760,35,780,45.5C800,56,820,112,840,119C860,126,880,84,900,80.5C920,77,940,112,960,115.5C980,119,1000,91,1020,87.5C1040,84,1060,105,1080,108.5C1100,112,1120,98,1140,108.5C1160,119,1180,154,1200,168C1220,182,1240,175,1260,175C1280,175,1300,182,1320,185.5C1340,189,1360,189,1380,168C1400,147,1420,105,1430,84L1440,63L1440,210L1430,210C1420,210,1400,210,1380,210C1360,210,1340,210,1320,210C1300,210,1280,210,1260,210C1240,210,1220,210,1200,210C1180,210,1160,210,1140,210C1120,210,1100,210,1080,210C1060,210,1040,210,1020,210C1000,210,980,210,960,210C940,210,920,210,900,210C880,210,860,210,840,210C820,210,800,210,780,210C760,210,740,210,720,210C700,210,680,210,660,210C640,210,620,210,600,210C580,210,560,210,540,210C520,210,500,210,480,210C460,210,440,210,420,210C400,210,380,210,360,210C340,210,320,210,300,210C280,210,260,210,240,210C220,210,200,210,180,210C160,210,140,210,120,210C100,210,80,210,60,210C40,210,20,210,10,210L0,210Z"/></svg>